<svg width="32" height="32" viewBox="0 0 32 32" fill="none" xmlns="http://www.w3.org/2000/svg">
<g filter="url(#filter0_i_34_21)">
<rect x="2" y="2" width="28" height="28" rx="6" fill="black"/>
<path d="M17.7405 3.63281C17.9976 3.60999 18.2598 3.64579 18.5032 3.74023L18.6233 3.79199L18.7395 3.85449C18.968 3.98814 19.1676 4.17861 19.3088 4.41699L19.3743 4.54004L19.429 4.66992C19.5425 4.97847 19.5542 5.31745 19.4563 5.6377C19.4521 5.65148 19.4474 5.66611 19.4426 5.67969L17.0168 12.5254C17.011 12.5418 17.005 12.5591 16.9983 12.5752C16.9965 12.5798 16.9957 12.5837 16.9954 12.5859C16.9951 12.588 16.9951 12.5907 16.9954 12.5928C16.996 12.5971 16.9983 12.6103 17.012 12.6279C17.0268 12.6469 17.0546 12.6726 17.0989 12.6934C17.1435 12.7142 17.1994 12.7266 17.259 12.7266H26.1057C26.5119 12.7259 26.9169 12.8287 27.2737 13.0303C27.6318 13.2327 27.9352 13.5312 28.1331 13.9033C28.3317 14.2771 28.4114 14.7037 28.3557 15.1279C28.3 15.5511 28.1138 15.9396 27.8342 16.25C27.8144 16.272 27.7925 16.2933 27.7708 16.3135L15.2639 27.9131L15.2629 27.9121C15.0173 28.1497 14.7074 28.2998 14.385 28.3535C14.0452 28.4099 13.6897 28.3617 13.3743 28.21C13.058 28.0575 12.7847 27.8011 12.6233 27.4629C12.4604 27.1213 12.4296 26.7311 12.5413 26.3652L12.5549 26.3232L14.9807 19.4775L14.9993 19.4277C15.0013 19.4228 15.0027 19.4184 15.0032 19.416C15.0034 19.414 15.0026 19.4113 15.0022 19.4092C15.0016 19.405 14.9992 19.3926 14.9856 19.375C14.9709 19.356 14.9431 19.3304 14.8987 19.3096C14.854 19.2887 14.7982 19.2753 14.7385 19.2754H5.89185V19.2744C5.48574 19.275 5.08057 19.1741 4.72388 18.9727C4.36574 18.7702 4.06337 18.4707 3.86548 18.0986C3.6668 17.7249 3.58629 17.2992 3.64185 16.875C3.69741 16.4517 3.88382 16.0634 4.16333 15.7529L4.22681 15.6885L16.7336 4.08887V4.08984C16.9793 3.85196 17.29 3.70322 17.6125 3.64941L17.7405 3.63281Z" fill="url(#paint0_linear_34_21)"/>
</g>
<defs>
<filter id="filter0_i_34_21" x="2" y="2" width="28" height="32" filterUnits="userSpaceOnUse" color-interpolation-filters="sRGB">
<feFlood flood-opacity="0" result="BackgroundImageFix"/>
<feBlend mode="normal" in="SourceGraphic" in2="BackgroundImageFix" result="shape"/>
<feColorMatrix in="SourceAlpha" type="matrix" values="0 0 0 0 0 0 0 0 0 0 0 0 0 0 0 0 0 0 127 0" result="hardAlpha"/>
<feOffset dy="4"/>
<feGaussianBlur stdDeviation="2"/>
<feComposite in2="hardAlpha" operator="arithmetic" k2="-1" k3="1"/>
<feColorMatrix type="matrix" values="0 0 0 0 0 0 0 0 0 0 0 0 0 0 0 0 0 0 0.25 0"/>
<feBlend mode="normal" in2="shape" result="effect1_innerShadow_34_21"/>
</filter>
<linearGradient id="paint0_linear_34_21" x1="15.9985" y1="3.62598" x2="15.9985" y2="28.3762" gradientUnits="userSpaceOnUse">
<stop stop-color="#366BFF"/>
<stop offset="1" stop-color="#BA00D3"/>
</linearGradient>
</defs>
</svg>
